# WaveFront *.obj file (generated by Autodesk ATF)

mtllib ca1cb2ca-fedc-432d-aa22-80c9e8cc0ec8.mtl

g Body1

v 2377.270000 2278.109697 74.000000
v 2377.270000 2278.109697 -46.000000
v 2382.270000 2278.109697 -51.000000
v 2502.270000 2278.109697 -51.000000
v 2507.270000 2278.109697 -46.000000
v 2507.270000 2278.109697 74.000000
v 2502.270000 2278.109697 79.000000
v 2382.270000 2278.109697 79.000000
v 2517.270000 2278.109697 -56.000000
v 2517.099629 2278.109697 -57.294095
v 2516.600127 2278.109697 -58.500000
v 2515.805534 2278.109697 -59.535534
v 2514.770000 2278.109697 -60.330127
v 2513.564095 2278.109697 -60.829629
v 2512.270000 2278.109697 -61.000000
v 2372.270000 2278.109697 -61.000000
v 2370.975905 2278.109697 -60.829629
v 2369.770000 2278.109697 -60.330127
v 2368.734466 2278.109697 -59.535534
v 2367.939873 2278.109697 -58.500000
v 2367.440371 2278.109697 -57.294095
v 2367.270000 2278.109697 -56.000000
v 2367.270000 2278.109697 84.000000
v 2367.440371 2278.109697 85.294095
v 2367.939873 2278.109697 86.500000
v 2368.734466 2278.109697 87.535534
v 2369.770000 2278.109697 88.330127
v 2370.975905 2278.109697 88.829629
v 2372.270000 2278.109697 89.000000
v 2512.270000 2278.109697 89.000000
v 2513.564095 2278.109697 88.829629
v 2514.770000 2278.109697 88.330127
v 2515.805534 2278.109697 87.535534
v 2516.600127 2278.109697 86.500000
v 2517.099629 2278.109697 85.294095
v 2517.270000 2278.109697 84.000000
v 2507.270000 140.109697 74.000000
v 2502.270000 140.109697 79.000000
v 2507.270000 140.109697 -46.000000
v 2502.270000 140.109697 -51.000000
v 2382.270000 140.109697 -51.000000
v 2372.270000 140.109697 89.000000
v 2512.270000 140.109697 89.000000
v 2367.270000 140.109697 84.000000
v 2367.440371 140.109697 85.294095
v 2367.939873 140.109697 86.500000
v 2368.734466 140.109697 87.535534
v 2369.770000 140.109697 88.330127
v 2370.975905 140.109697 88.829629
v 2367.270000 140.109697 -56.000000
v 2372.270000 140.109697 -61.000000
v 2370.975905 140.109697 -60.829629
v 2369.770000 140.109697 -60.330127
v 2368.734466 140.109697 -59.535534
v 2367.939873 140.109697 -58.500000
v 2367.440371 140.109697 -57.294095
v 2377.270000 140.109697 -46.000000
v 2382.270000 140.109697 79.000000
v 2377.270000 140.109697 74.000000
v 2512.270000 140.109697 -61.000000
v 2513.564095 140.109697 88.829629
v 2514.770000 140.109697 88.330127
v 2515.805534 140.109697 87.535534
v 2516.600127 140.109697 86.500000
v 2517.099629 140.109697 85.294095
v 2517.270000 140.109697 84.000000
v 2517.270000 140.109697 -56.000000
v 2517.099629 140.109697 -57.294095
v 2516.600127 140.109697 -58.500000
v 2515.805534 140.109697 -59.535534
v 2514.770000 140.109697 -60.330127
v 2513.564095 140.109697 -60.829629
vt 6.000000 6.500000 0.000000
vt -7.000000 7.500000 0.000000
vt -6.000000 6.500000 0.000000
vt -7.500000 7.000000 0.000000
vt -6.500000 6.000000 0.000000
vt -7.500000 -7.000000 0.000000
vt -6.500000 -6.000000 0.000000
vt -6.000000 -6.500000 0.000000
vt -7.000000 -7.500000 0.000000
vt 7.000000 -7.500000 0.000000
vt 6.500000 6.000000 0.000000
vt 7.500000 7.000000 0.000000
vt 7.000000 7.500000 0.000000
vt 7.500000 -7.000000 0.000000
vt 6.500000 -6.000000 0.000000
vt 6.000000 -6.500000 0.000000
vt 7.129410 -7.482963 0.000000
vt 7.250000 -7.433013 0.000000
vt 7.353553 -7.353553 0.000000
vt 7.433013 -7.250000 0.000000
vt 7.482963 -7.129410 0.000000
vt 7.482963 7.129410 0.000000
vt 7.433013 7.250000 0.000000
vt 7.353553 7.353553 0.000000
vt 7.250000 7.433013 0.000000
vt 7.129410 7.482963 0.000000
vt -7.129410 7.482963 0.000000
vt -7.250000 7.433013 0.000000
vt -7.353553 7.353553 0.000000
vt -7.433013 7.250000 0.000000
vt -7.482963 7.129410 0.000000
vt -7.482963 -7.129410 0.000000
vt -7.433013 -7.250000 0.000000
vt -7.353553 -7.353553 0.000000
vt -7.250000 -7.433013 0.000000
vt -7.129410 -7.482963 0.000000
vt -0.000000 -190.000000 0.000000
vt 0.707107 -190.000000 0.000000
vt 0.000000 23.800000 0.000000
vt 0.707107 23.800000 0.000000
vt 0.000000 -190.000000 0.000000
vt 12.000000 -190.000000 0.000000
vt -0.000000 23.800000 0.000000
vt 12.000000 23.800000 0.000000
vt 0.000000 -190.000000 0.000000
vt 0.707107 -190.000000 0.000000
vt -0.000000 23.800000 0.000000
vt 0.707107 23.800000 0.000000
vt 0.000000 -190.000000 0.000000
vt 12.000000 -190.000000 0.000000
vt -0.000000 23.800000 0.000000
vt 12.000000 23.800000 0.000000
vt 0.000000 -190.000000 0.000000
vt 14.000000 -190.000000 0.000000
vt -0.000000 23.800000 0.000000
vt 14.000000 23.800000 0.000000
vt -23.800000 -0.392699 0.000000
vt 190.000000 -0.392699 0.000000
vt -23.800000 -0.261799 0.000000
vt 190.000000 -0.261799 0.000000
vt -23.800000 -0.130900 0.000000
vt 190.000000 -0.130900 0.000000
vt -23.800000 0.000000 0.000000
vt 190.000000 -0.000000 0.000000
vt -23.800000 0.130900 0.000000
vt 190.000000 0.130900 0.000000
vt -23.800000 0.261799 0.000000
vt 190.000000 0.261799 0.000000
vt -23.800000 0.392699 0.000000
vt 190.000000 0.392699 0.000000
vt 0.000000 -190.000000 0.000000
vt 14.000000 -190.000000 0.000000
vt -0.000000 23.800000 0.000000
vt 14.000000 23.800000 0.000000
vt -23.800000 -0.392699 0.000000
vt 190.000000 -0.392699 0.000000
vt -23.800000 -0.261799 0.000000
vt 190.000000 -0.261799 0.000000
vt -23.800000 -0.130900 0.000000
vt 190.000000 -0.130900 0.000000
vt -23.800000 -0.000000 0.000000
vt 190.000000 0.000000 0.000000
vt -23.800000 0.130900 0.000000
vt 190.000000 0.130900 0.000000
vt -23.800000 0.261799 0.000000
vt 190.000000 0.261799 0.000000
vt -23.800000 0.392699 0.000000
vt 190.000000 0.392699 0.000000
vt 0.000000 -190.000000 0.000000
vt 0.707107 -190.000000 0.000000
vt -0.000000 23.800000 0.000000
vt 0.707107 23.800000 0.000000
vt -0.000000 -190.000000 0.000000
vt 12.000000 -190.000000 0.000000
vt 0.000000 23.800000 0.000000
vt 12.000000 23.800000 0.000000
vt -0.000000 -190.000000 0.000000
vt 0.707107 -190.000000 0.000000
vt 0.000000 23.800000 0.000000
vt 0.707107 23.800000 0.000000
vt -0.000000 -190.000000 0.000000
vt 12.000000 -190.000000 0.000000
vt 0.000000 23.800000 0.000000
vt 12.000000 23.800000 0.000000
vt -0.000000 -190.000000 0.000000
vt 14.000000 -190.000000 0.000000
vt 0.000000 23.800000 0.000000
vt 14.000000 23.800000 0.000000
vt -23.800000 -0.392699 0.000000
vt 190.000000 -0.392699 0.000000
vt -23.800000 -0.261799 0.000000
vt 190.000000 -0.261799 0.000000
vt -23.800000 -0.130900 0.000000
vt 190.000000 -0.130900 0.000000
vt -23.800000 -0.000000 0.000000
vt 190.000000 -0.000000 0.000000
vt -23.800000 0.130900 0.000000
vt 190.000000 0.130900 0.000000
vt -23.800000 0.261799 0.000000
vt 190.000000 0.261799 0.000000
vt -23.800000 0.392699 0.000000
vt 190.000000 0.392699 0.000000
vt -0.000000 -190.000000 0.000000
vt 14.000000 -190.000000 0.000000
vt 0.000000 23.800000 0.000000
vt 14.000000 23.800000 0.000000
vt -23.800000 -0.392699 0.000000
vt 190.000000 -0.392699 0.000000
vt -23.800000 -0.261799 0.000000
vt 190.000000 -0.261799 0.000000
vt -23.800000 -0.130900 0.000000
vt 190.000000 -0.130900 0.000000
vt -23.800000 0.000000 0.000000
vt 190.000000 0.000000 0.000000
vt -23.800000 0.130900 0.000000
vt 190.000000 0.130900 0.000000
vt -23.800000 0.261799 0.000000
vt 190.000000 0.261799 0.000000
vt -23.800000 0.392699 0.000000
vt 190.000000 0.392699 0.000000
vt 6.000000 6.500000 0.000000
vt -7.000000 7.500000 0.000000
vt -6.000000 6.500000 0.000000
vt -7.500000 7.000000 0.000000
vt -6.500000 6.000000 0.000000
vt -7.500000 -7.000000 0.000000
vt -6.500000 -6.000000 0.000000
vt -6.000000 -6.500000 0.000000
vt -7.000000 -7.500000 0.000000
vt 7.000000 -7.500000 0.000000
vt 6.500000 6.000000 0.000000
vt 7.500000 7.000000 0.000000
vt 7.000000 7.500000 0.000000
vt 7.500000 -7.000000 0.000000
vt 6.500000 -6.000000 0.000000
vt 6.000000 -6.500000 0.000000
vt -7.482963 -7.129410 0.000000
vt -7.433013 -7.250000 0.000000
vt -7.353553 -7.353553 0.000000
vt -7.250000 -7.433013 0.000000
vt -7.129410 -7.482963 0.000000
vt 7.129410 -7.482963 0.000000
vt 7.250000 -7.433013 0.000000
vt 7.353553 -7.353553 0.000000
vt 7.433013 -7.250000 0.000000
vt 7.482963 -7.129410 0.000000
vt 7.482963 7.129410 0.000000
vt 7.433013 7.250000 0.000000
vt 7.353553 7.353553 0.000000
vt 7.250000 7.433013 0.000000
vt 7.129410 7.482963 0.000000
vt -7.129410 7.482963 0.000000
vt -7.250000 7.433013 0.000000
vt -7.353553 7.353553 0.000000
vt -7.433013 7.250000 0.000000
vt -7.482963 7.129410 0.000000
vn -0.000000 0.100000 0.000000
vn -0.000000 0.100000 0.000000
vn -0.000000 0.100000 0.000000
vn -0.000000 0.100000 0.000000
vn -0.000000 0.100000 0.000000
vn -0.000000 0.100000 0.000000
vn -0.000000 0.100000 0.000000
vn -0.000000 0.100000 0.000000
vn -0.000000 0.100000 0.000000
vn -0.000000 0.100000 0.000000
vn -0.000000 0.100000 0.000000
vn -0.000000 0.100000 0.000000
vn -0.000000 0.100000 0.000000
vn -0.000000 0.100000 0.000000
vn -0.000000 0.100000 0.000000
vn -0.000000 0.100000 0.000000
vn -0.000000 0.100000 0.000000
vn -0.000000 0.100000 0.000000
vn -0.000000 0.100000 0.000000
vn -0.000000 0.100000 0.000000
vn -0.000000 0.100000 0.000000
vn -0.000000 0.100000 0.000000
vn -0.000000 0.100000 0.000000
vn -0.000000 0.100000 0.000000
vn -0.000000 0.100000 0.000000
vn -0.000000 0.100000 0.000000
vn -0.000000 0.100000 0.000000
vn -0.000000 0.100000 0.000000
vn -0.000000 0.100000 0.000000
vn -0.000000 0.100000 0.000000
vn -0.000000 0.100000 0.000000
vn -0.000000 0.100000 0.000000
vn -0.000000 0.100000 0.000000
vn -0.000000 0.100000 0.000000
vn -0.000000 0.100000 0.000000
vn -0.000000 0.100000 0.000000
vn -0.070711 -0.000000 -0.070711
vn -0.070711 -0.000000 -0.070711
vn -0.070711 -0.000000 -0.070711
vn -0.070711 -0.000000 -0.070711
vn -0.100000 -0.000000 -0.000000
vn -0.100000 -0.000000 -0.000000
vn -0.100000 -0.000000 -0.000000
vn -0.100000 -0.000000 -0.000000
vn -0.070711 -0.000000 0.070711
vn -0.070711 -0.000000 0.070711
vn -0.070711 -0.000000 0.070711
vn -0.070711 -0.000000 0.070711
vn -0.000000 -0.000000 0.100000
vn -0.000000 -0.000000 0.100000
vn -0.000000 -0.000000 0.100000
vn -0.000000 -0.000000 0.100000
vn -0.000000 -0.000000 0.100000
vn -0.000000 -0.000000 0.100000
vn -0.000000 -0.000000 0.100000
vn -0.000000 -0.000000 0.100000
vn -0.025882 -0.000000 0.096593
vn -0.025882 -0.000000 0.096593
vn -0.050000 -0.000000 0.086603
vn -0.050000 -0.000000 0.086603
vn -0.070711 -0.000000 0.070711
vn -0.070711 -0.000000 0.070711
vn -0.086603 -0.000000 0.050000
vn -0.086603 -0.000000 0.050000
vn -0.096593 -0.000000 0.025882
vn -0.096593 -0.000000 0.025882
vn -0.100000 -0.000000 0.000000
vn -0.100000 -0.000000 0.000000
vn -0.100000 -0.000000 -0.000000
vn -0.100000 -0.000000 -0.000000
vn -0.096593 -0.000000 -0.025882
vn -0.096593 -0.000000 -0.025882
vn -0.086603 -0.000000 -0.050000
vn -0.086603 -0.000000 -0.050000
vn -0.070711 -0.000000 -0.070711
vn -0.070711 -0.000000 -0.070711
vn -0.050000 -0.000000 -0.086603
vn -0.050000 -0.000000 -0.086603
vn -0.025882 -0.000000 -0.096593
vn -0.025882 -0.000000 -0.096593
vn 0.000000 0.000000 -0.100000
vn 0.000000 0.000000 -0.100000
vn 0.070711 0.000000 0.070711
vn 0.070711 0.000000 0.070711
vn 0.070711 0.000000 0.070711
vn 0.070711 0.000000 0.070711
vn 0.000000 0.000000 -0.100000
vn 0.000000 0.000000 -0.100000
vn 0.000000 0.000000 -0.100000
vn 0.000000 0.000000 -0.100000
vn 0.070711 0.000000 -0.070711
vn 0.070711 0.000000 -0.070711
vn 0.070711 0.000000 -0.070711
vn 0.070711 0.000000 -0.070711
vn 0.100000 0.000000 0.000000
vn 0.100000 0.000000 0.000000
vn 0.100000 0.000000 0.000000
vn 0.100000 0.000000 0.000000
vn 0.000000 0.000000 -0.100000
vn 0.000000 0.000000 -0.100000
vn 0.100000 0.000000 0.000000
vn 0.100000 0.000000 0.000000
vn 0.096593 0.000000 0.025882
vn 0.096593 0.000000 0.025882
vn 0.086603 0.000000 0.050000
vn 0.086603 0.000000 0.050000
vn 0.070711 0.000000 0.070711
vn 0.070711 0.000000 0.070711
vn 0.050000 0.000000 0.086603
vn 0.050000 0.000000 0.086603
vn 0.025882 0.000000 0.096593
vn 0.025882 0.000000 0.096593
vn 0.100000 0.000000 0.000000
vn 0.100000 0.000000 0.000000
vn 0.025882 0.000000 -0.096593
vn 0.025882 0.000000 -0.096593
vn 0.050000 0.000000 -0.086603
vn 0.050000 0.000000 -0.086603
vn 0.070711 0.000000 -0.070711
vn 0.070711 0.000000 -0.070711
vn 0.086603 0.000000 -0.050000
vn 0.086603 0.000000 -0.050000
vn 0.096593 0.000000 -0.025882
vn 0.096593 0.000000 -0.025882
vn 0.000000 -0.100000 -0.000000
vn 0.000000 -0.100000 -0.000000
vn 0.000000 -0.100000 -0.000000
vn 0.000000 -0.100000 -0.000000
vn 0.000000 -0.100000 -0.000000
vn 0.000000 -0.100000 -0.000000
vn 0.000000 -0.100000 -0.000000
vn 0.000000 -0.100000 -0.000000
vn 0.000000 -0.100000 -0.000000
vn 0.000000 -0.100000 -0.000000
vn 0.000000 -0.100000 -0.000000
vn 0.000000 -0.100000 -0.000000
vn 0.000000 -0.100000 -0.000000
vn 0.000000 -0.100000 -0.000000
vn 0.000000 -0.100000 -0.000000
vn 0.000000 -0.100000 -0.000000
vn 0.000000 -0.100000 -0.000000
vn 0.000000 -0.100000 -0.000000
vn 0.000000 -0.100000 -0.000000
vn 0.000000 -0.100000 -0.000000
vn 0.000000 -0.100000 -0.000000
vn 0.000000 -0.100000 -0.000000
vn 0.000000 -0.100000 -0.000000
vn 0.000000 -0.100000 -0.000000
vn 0.000000 -0.100000 -0.000000
vn 0.000000 -0.100000 -0.000000
vn 0.000000 -0.100000 -0.000000
vn 0.000000 -0.100000 -0.000000
vn 0.000000 -0.100000 -0.000000
vn 0.000000 -0.100000 -0.000000
vn 0.000000 -0.100000 -0.000000
vn 0.000000 -0.100000 -0.000000
vn 0.000000 -0.100000 -0.000000
vn 0.000000 -0.100000 -0.000000
vn 0.000000 -0.100000 -0.000000
vn 0.000000 -0.100000 -0.000000
usemtl Plastic_-_Matte_(Gray)
f 2/1/1 23/2/2 1/3/3
f 1/3/3 23/2/2 29/4/4
f 1/3/3 29/4/4 8/5/5
f 8/5/5 29/4/4 30/6/6
f 8/5/5 30/6/6 7/7/7
f 7/7/7 30/6/6 6/8/8
f 6/8/8 30/6/6 36/9/9
f 6/8/8 36/9/9 9/10/10
f 3/11/11 16/12/12 2/1/1
f 2/1/1 16/12/12 22/13/13
f 2/1/1 22/13/13 23/2/2
f 16/12/12 3/11/11 15/14/14
f 15/14/14 3/11/11 4/15/15
f 15/14/14 4/15/15 5/16/16
f 15/14/14 5/16/16 9/10/10
f 9/10/10 5/16/16 6/8/8
f 9/10/10 10/17/17 15/14/14
f 15/14/14 10/17/17 11/18/18
f 15/14/14 11/18/18 12/19/19
f 12/19/19 13/20/20 15/14/14
f 15/14/14 13/20/20 14/21/21
f 16/12/12 17/22/22 22/13/13
f 22/13/13 17/22/22 18/23/23
f 22/13/13 18/23/23 19/24/24
f 19/24/24 20/25/25 22/13/13
f 22/13/13 20/25/25 21/26/26
f 24/27/27 25/28/28 23/2/2
f 23/2/2 25/28/28 26/29/29
f 23/2/2 26/29/29 27/30/30
f 27/30/30 28/31/31 23/2/2
f 23/2/2 28/31/31 29/4/4
f 31/32/32 32/33/33 30/6/6
f 30/6/6 32/33/33 33/34/34
f 30/6/6 33/34/34 34/35/35
f 34/35/35 35/36/36 30/6/6
f 30/6/6 35/36/36 36/9/9
f 7/37/37 6/38/38 38/39/39
f 38/39/39 6/38/38 37/40/40
f 6/41/41 5/42/42 37/43/43
f 37/43/43 5/42/42 39/44/44
f 5/45/45 4/46/46 39/47/47
f 39/47/47 4/46/46 40/48/48
f 4/49/49 3/50/50 40/51/51
f 40/51/51 3/50/50 41/52/52
f 30/53/53 29/54/54 43/55/55
f 43/55/55 29/54/54 42/56/56
f 42/57/56 29/58/54 49/59/57
f 49/59/57 29/58/54 28/60/58
f 49/59/57 28/60/58 48/61/59
f 48/61/59 28/60/58 27/62/60
f 48/61/59 27/62/60 47/63/61
f 47/63/61 27/62/60 26/64/62
f 47/63/61 26/64/62 46/65/63
f 46/65/63 26/64/62 25/66/64
f 46/65/63 25/66/64 45/67/65
f 45/67/65 25/66/64 24/68/66
f 45/67/65 24/68/66 44/69/67
f 44/69/67 24/68/66 23/70/68
f 23/71/68 22/72/69 44/73/67
f 44/73/67 22/72/69 50/74/70
f 50/75/70 22/76/69 56/77/71
f 56/77/71 22/76/69 21/78/72
f 56/77/71 21/78/72 55/79/73
f 55/79/73 21/78/72 20/80/74
f 55/79/73 20/80/74 54/81/75
f 54/81/75 20/80/74 19/82/76
f 54/81/75 19/82/76 53/83/77
f 53/83/77 19/82/76 18/84/78
f 53/83/77 18/84/78 52/85/79
f 52/85/79 18/84/78 17/86/80
f 52/85/79 17/86/80 51/87/81
f 51/87/81 17/86/80 16/88/82
f 3/89/83 2/90/84 41/91/85
f 41/91/85 2/90/84 57/92/86
f 8/93/87 7/94/88 58/95/89
f 58/95/89 7/94/88 38/96/90
f 1/97/91 8/98/92 59/99/93
f 59/99/93 8/98/92 58/100/94
f 2/101/95 1/102/96 57/103/97
f 57/103/97 1/102/96 59/104/98
f 16/105/82 15/106/99 51/107/81
f 51/107/81 15/106/99 60/108/100
f 66/109/101 36/110/102 65/111/103
f 65/111/103 36/110/102 35/112/104
f 65/111/103 35/112/104 64/113/105
f 64/113/105 35/112/104 34/114/106
f 64/113/105 34/114/106 63/115/107
f 63/115/107 34/114/106 33/116/108
f 63/115/107 33/116/108 62/117/109
f 62/117/109 33/116/108 32/118/110
f 62/117/109 32/118/110 61/119/111
f 61/119/111 32/118/110 31/120/112
f 61/119/111 31/120/112 43/121/55
f 43/121/55 31/120/112 30/122/53
f 9/123/113 36/124/102 67/125/114
f 67/125/114 36/124/102 66/126/101
f 60/127/100 15/128/99 72/129/115
f 72/129/115 15/128/99 14/130/116
f 72/129/115 14/130/116 71/131/117
f 71/131/117 14/130/116 13/132/118
f 71/131/117 13/132/118 70/133/119
f 70/133/119 13/132/118 12/134/120
f 70/133/119 12/134/120 69/135/121
f 69/135/121 12/134/120 11/136/122
f 69/135/121 11/136/122 68/137/123
f 68/137/123 11/136/122 10/138/124
f 68/137/123 10/138/124 67/139/114
f 67/139/114 10/138/124 9/140/113
f 59/141/125 50/142/126 57/143/127
f 57/143/127 50/142/126 51/144/128
f 57/143/127 51/144/128 41/145/129
f 41/145/129 51/144/128 60/146/130
f 41/145/129 60/146/130 40/147/131
f 40/147/131 60/146/130 39/148/132
f 39/148/132 60/146/130 67/149/133
f 39/148/132 67/149/133 66/150/134
f 58/151/135 42/152/136 59/141/125
f 59/141/125 42/152/136 44/153/137
f 59/141/125 44/153/137 50/142/126
f 42/152/136 58/151/135 43/154/138
f 43/154/138 58/151/135 38/155/139
f 43/154/138 38/155/139 37/156/140
f 43/154/138 37/156/140 66/150/134
f 66/150/134 37/156/140 39/148/132
f 72/157/141 71/158/142 60/146/130
f 60/146/130 71/158/142 70/159/143
f 60/146/130 70/159/143 69/160/144
f 69/160/144 68/161/145 60/146/130
f 60/146/130 68/161/145 67/149/133
f 66/150/134 65/162/146 43/154/138
f 43/154/138 65/162/146 64/163/147
f 43/154/138 64/163/147 63/164/148
f 63/164/148 62/165/149 43/154/138
f 43/154/138 62/165/149 61/166/150
f 42/152/136 49/167/151 44/153/137
f 44/153/137 49/167/151 48/168/152
f 44/153/137 48/168/152 47/169/153
f 47/169/153 46/170/154 44/153/137
f 44/153/137 46/170/154 45/171/155
f 56/172/156 55/173/157 50/142/126
f 50/142/126 55/173/157 54/174/158
f 50/142/126 54/174/158 53/175/159
f 53/175/159 52/176/160 50/142/126
f 50/142/126 52/176/160 51/144/128

# 72 vertices
# 176 texture params
# 160 normals
# 144 facets

# 1 groups
